<mxfile host="app.diagrams.net" modified="2024-01-11T11:18:43.128Z" agent="Mozilla/5.0 (X11; Linux x86_64) AppleWebKit/537.36 (KHTML, like Gecko) Chrome/120.0.0.0 Safari/537.36" version="22.1.18" etag="vMdN0ebpCzt2g4UIUhjd" type="github">
  <diagram name="Page-1" id="3W-tetvpnMX48gPjwy_N">
    <mxGraphModel>
      <root>
        <mxCell id="0" />
        <mxCell id="1" parent="0" />
      </root>
    </mxGraphModel>
  </diagram>
</mxfile>
